<?xml version="1.0" standalone="no"?>
<!DOCTYPE svg PUBLIC "-//W3C//DTD SVG 20010904//EN"
 "http://www.w3.org/TR/2001/REC-SVG-20010904/DTD/svg10.dtd">
<svg version="1.0" xmlns="http://www.w3.org/2000/svg"
 width="250.000000pt" height="250.000000pt" viewBox="0 0 250.000000 250.000000"
 preserveAspectRatio="xMidYMid meet">
<metadata>
Created by potrace 1.16, written by Peter Selinger 2001-2019
</metadata>
<g transform="translate(0.000000,250.000000) scale(0.100000,-0.100000)"
fill="#000000" stroke="none">
<path d="M1130 2075 l0 -425 83 0 c219 0 472 -86 654 -222 311 -233 477 -617
435 -1004 -7 -60 -22 -139 -33 -176 l-22 -68 -293 0 c-162 0 -294 3 -294 6 0
3 11 20 24 37 106 142 128 386 49 556 -115 249 -391 387 -652 326 -197 -47
-368 -210 -425 -405 -17 -56 -23 -221 -11 -276 17 -73 68 -187 103 -226 14
-17 -4 -18 -366 -18 l-382 0 0 -90 0 -90 1178 0 1178 0 31 33 c34 35 72 135
98 257 21 99 21 408 -1 510 -63 306 -260 616 -498 785 -16 11 -33 25 -40 31
-12 11 -116 72 -156 91 -142 68 -304 116 -420 125 l-35 3 -3 333 -2 332 -100
0 -100 0 0 -425z m230 -1186 c144 -67 227 -207 218 -368 -8 -136 -83 -252
-200 -310 -57 -29 -68 -31 -172 -31 -133 0 -183 19 -262 97 -115 113 -144 281
-75 429 45 96 144 179 245 205 62 16 187 5 246 -22z"/>
</g>
</svg>
