<?xml version="1.0" standalone="no"?>
<!DOCTYPE svg PUBLIC "-//W3C//DTD SVG 20010904//EN"
 "http://www.w3.org/TR/2001/REC-SVG-20010904/DTD/svg10.dtd">
<svg version="1.0" xmlns="http://www.w3.org/2000/svg"
 width="1562.000000pt" height="977.000000pt" viewBox="0 0 1562.000000 977.000000"
 preserveAspectRatio="xMidYMid meet">
<metadata>
Created by potrace 1.16, written by Peter Selinger 2001-2019
</metadata>
<g transform="translate(0.000000,977.000000) scale(0.100000,-0.100000)"
fill="#ffffff" stroke="none">
<path d="M7820 6418 c0 -2870 -2 -3371 -15 -3478 -8 -69 -16 -134 -19 -145 -2
-11 -10 -47 -16 -80 -6 -33 -15 -78 -20 -100 -5 -22 -14 -67 -20 -100 -11 -57
-18 -89 -41 -195 -6 -25 -15 -65 -20 -90 -6 -25 -14 -61 -19 -80 -5 -19 -21
-84 -35 -145 -42 -182 -61 -250 -131 -460 -61 -184 -95 -279 -105 -289 -5 -6
-9 -16 -9 -23 0 -7 -16 -48 -36 -90 -19 -43 -43 -94 -51 -113 -9 -19 -30 -66
-48 -105 -18 -38 -39 -86 -47 -105 -9 -19 -25 -55 -36 -80 -27 -61 -68 -186
-77 -233 -9 -45 8 -90 38 -105 12 -6 58 -15 102 -22 44 -6 107 -15 140 -20
271 -41 345 -41 429 -1 34 17 86 52 116 80 35 31 57 45 61 38 4 -7 10 -36 14
-64 5 -38 15 -62 35 -83 25 -27 34 -30 87 -30 136 0 277 125 375 330 98 207
93 198 95 160 7 -104 31 -247 55 -335 20 -71 83 -145 123 -145 50 1 202 28
225 39 72 38 102 91 141 251 29 116 13 814 -22 995 -27 136 -64 266 -87 302
-24 38 -63 28 -89 -22 -52 -98 -73 -240 -73 -495 0 -211 6 -268 40 -384 12
-40 61 -96 85 -96 19 0 52 31 70 65 14 29 15 29 10 -25 -9 -89 -28 -193 -42
-227 -23 -57 -99 -93 -199 -93 l-61 0 -26 54 c-15 30 -27 64 -27 75 0 11 -4
30 -9 43 -5 13 -15 62 -22 110 l-12 86 35 49 c34 47 35 52 42 170 6 114 5 123
-16 160 -12 21 -28 44 -35 51 -6 6 -14 20 -17 30 -9 25 -146 156 -179 170 -30
13 -85 16 -111 6 -10 -4 -16 -18 -16 -38 0 -18 -4 -57 -9 -87 -5 -30 -12 -81
-16 -115 l-6 -61 61 -6 c39 -3 76 -14 105 -32 45 -26 115 -89 115 -103 0 -4
-9 -20 -20 -37 -20 -28 -43 -75 -77 -155 -97 -225 -151 -309 -232 -361 -44
-29 -111 -39 -137 -21 -36 24 -43 91 -18 162 40 111 64 265 71 450 4 142 3
160 -17 213 -49 130 -120 110 -240 -68 -63 -94 -130 -205 -130 -216 0 -5 -4
-9 -10 -9 -5 0 -10 -5 -10 -10 0 -6 -18 -40 -40 -76 -22 -36 -40 -68 -40 -69
0 -9 -72 -126 -75 -123 -2 2 18 69 44 148 26 80 54 165 61 190 7 25 16 56 20
70 8 27 24 85 40 150 6 22 14 57 20 78 30 118 89 399 115 552 3 19 11 60 16
90 17 96 44 261 59 365 6 39 15 97 20 130 33 227 43 325 49 520 5 166 7 6479
2 6593 -1 18 -7 22 -31 22 l-30 0 -1 -3352 c0 -1964 -4 -3397 -9 -3458 -11
-123 -28 -251 -60 -437 -5 -35 -14 -90 -20 -123 -16 -93 -29 -170 -40 -225 -5
-27 -14 -77 -20 -110 -32 -164 -58 -291 -70 -335 -5 -19 -19 -75 -30 -125 -12
-49 -25 -101 -30 -115 -4 -14 -12 -43 -18 -65 -51 -191 -170 -541 -227 -670
-7 -16 -19 -45 -26 -62 -8 -18 -20 -33 -28 -33 -33 0 -137 25 -143 35 -26 36
10 160 117 398 52 117 171 468 190 562 4 17 10 41 15 55 15 47 66 254 101 408
5 23 13 61 19 85 9 40 22 105 40 192 5 22 13 66 19 98 6 31 16 83 22 115 6 31
14 77 19 102 5 25 13 70 18 100 31 165 32 291 32 3608 l0 3352 -30 0 -30 0 0
-3352z m1167 -4820 c24 -32 38 -119 38 -243 0 -146 -6 -180 -34 -188 -48 -12
-71 60 -71 220 0 167 30 259 67 211z m-903 -390 c47 -67 -8 -308 -96 -421 -99
-127 -189 -176 -297 -161 -67 9 -75 15 -60 47 7 15 16 27 21 27 4 0 8 4 8 10
0 8 25 50 90 150 5 8 46 71 90 140 70 108 111 166 155 217 18 21 72 15 89 -9z"/>
<path d="M9773 6318 c3 -2439 7 -3468 14 -3503 33 -148 47 -218 74 -362 6 -32
14 -74 19 -93 5 -19 12 -53 15 -75 10 -72 89 -397 127 -520 31 -103 78 -247
88 -270 5 -11 16 -42 25 -70 9 -27 22 -63 29 -80 7 -16 23 -55 36 -85 13 -30
45 -101 72 -156 26 -56 48 -106 48 -112 0 -6 3 -12 8 -14 4 -1 18 -25 32 -53
13 -27 41 -79 62 -114 21 -34 38 -66 38 -70 0 -3 12 -25 28 -47 l27 -41 52 16
53 17 -54 79 c-29 44 -69 109 -88 145 -19 36 -44 81 -55 100 -100 176 -219
446 -279 630 -14 41 -29 84 -34 95 -4 11 -11 29 -13 40 -3 11 -15 52 -27 90
-12 39 -26 86 -30 105 -5 19 -27 107 -50 195 -22 88 -45 178 -49 200 -5 22
-16 74 -24 115 -9 41 -21 104 -28 140 -6 36 -15 88 -20 115 -38 210 -38 209
-39 3683 l0 3352 -30 0 -30 0 3 -3452z"/>
<path d="M10237 2907 c-22 -134 85 -463 184 -568 46 -49 87 -52 103 -7 14 40
-26 222 -73 333 -18 41 -76 160 -84 170 -4 6 -23 31 -43 58 -44 59 -78 65 -87
14z m99 -124 c36 -32 80 -124 114 -238 24 -82 -4 -132 -48 -85 -48 51 -102
202 -102 283 0 61 6 67 36 40z"/>
<path d="M8592 2890 c-19 -21 -49 -138 -72 -278 -16 -96 -16 -434 -1 -492 23
-87 32 -101 59 -98 38 5 66 66 94 203 16 80 22 480 8 550 -25 128 -48 158 -88
115z m46 -219 c15 -47 16 -281 2 -336 -24 -93 -33 -115 -50 -115 -51 0 -56
293 -8 453 15 50 41 49 56 -2z"/>
<path d="M8988 2838 c-29 -35 -68 -78 -85 -96 -32 -32 -33 -35 -33 -123 l0
-90 33 33 c17 18 57 62 87 98 30 36 58 67 63 68 10 5 9 172 -2 172 -5 0 -33
-28 -63 -62z"/>
<path d="M5294 2457 c-19 -21 -68 -62 -104 -87 -19 -14 -37 -28 -40 -32 -6 -8
-263 -138 -315 -159 -68 -28 -148 -56 -195 -69 -25 -7 -56 -16 -70 -20 -14 -5
-56 -14 -95 -20 -38 -7 -89 -16 -112 -21 -101 -22 -356 -7 -435 26 -26 10 -31
41 -14 76 l15 31 -27 -7 c-15 -4 -54 -11 -87 -16 -33 -5 -85 -13 -115 -19 -97
-16 -183 -30 -260 -40 -50 -7 -79 -16 -87 -27 -20 -26 -15 -67 10 -89 38 -34
56 -40 207 -75 60 -14 450 -17 510 -5 24 5 7 -7 -55 -39 -151 -79 -168 -109
-88 -160 87 -56 99 -58 246 -58 75 1 137 -2 137 -6 -1 -3 -15 -15 -33 -26 -35
-22 -60 -65 -52 -88 4 -8 18 -20 33 -28 15 -8 29 -16 32 -19 10 -10 95 -49
130 -59 19 -5 94 -15 167 -22 180 -17 297 -1 596 80 43 12 97 28 120 35 23 8
57 17 76 20 l34 6 -24 -21 c-13 -12 -58 -49 -99 -83 -41 -33 -118 -104 -171
-156 -77 -76 -99 -103 -104 -132 -9 -48 -3 -55 62 -84 57 -26 140 -32 174 -13
35 18 40 5 13 -34 -38 -57 -42 -100 -11 -130 52 -53 150 -52 292 2 50 19 205
96 205 101 0 4 11 12 25 18 14 7 31 16 38 22 14 12 79 62 121 93 107 80 314
318 350 402 41 95 45 118 23 146 -33 42 -78 39 -178 -11 -49 -25 -161 -92
-169 -101 -3 -3 -27 -20 -55 -39 -27 -19 -52 -36 -55 -39 -3 -3 -34 -26 -70
-50 -36 -25 -67 -47 -70 -51 -12 -13 -113 -70 -124 -70 -7 0 -16 -3 -20 -7 -3
-4 -23 -13 -44 -20 -126 -44 -152 35 -47 143 11 11 54 57 96 100 78 82 95 93
188 116 46 11 69 26 148 96 l93 83 0 82 c0 150 -58 243 -162 262 -29 5 -40 2
-69 -22 -19 -15 -36 -30 -39 -33 -3 -3 -35 -26 -72 -50 -37 -25 -68 -48 -68
-51 0 -3 21 -17 46 -30 55 -28 101 -79 120 -134 21 -61 18 -73 -18 -80 -44 -9
-118 -32 -203 -62 -249 -88 -378 -116 -535 -117 -117 -1 -220 16 -220 35 0 4
-13 12 -30 19 -37 15 -40 47 -7 77 12 12 90 53 172 93 370 178 482 236 476
247 -2 5 -17 16 -33 26 l-29 17 -123 -60 c-68 -33 -126 -60 -130 -60 -3 0 -34
-13 -68 -28 -35 -16 -79 -34 -98 -41 -19 -8 -51 -20 -70 -29 -52 -23 -156 -49
-250 -63 -73 -10 -133 -4 -167 18 -49 33 -21 63 122 133 120 59 121 59 215 91
36 12 69 26 74 31 6 4 16 8 23 8 23 0 261 120 341 173 42 27 103 72 135 100
l58 49 -47 24 c-26 13 -48 24 -48 24 -1 -1 -6 -6 -12 -13z m760 -1003 c20 -8
21 -46 2 -83 -27 -52 -188 -194 -277 -243 -86 -49 -130 -58 -161 -34 -20 15
-23 54 -7 88 5 13 51 50 101 83 50 33 96 64 102 70 41 38 163 110 201 118 11
3 21 5 22 6 1 0 8 -2 17 -5z"/>
<path d="M8880 2310 l0 -120 30 0 30 0 0 120 0 120 -30 0 -30 0 0 -120z"/>
<path d="M8970 2316 c0 -63 4 -117 8 -120 5 -3 17 -3 28 0 18 5 19 13 16 119
-3 114 -3 115 -28 115 l-24 0 0 -114z"/>
<path d="M6715 2237 c-44 -18 -113 -43 -152 -56 -74 -25 -94 -43 -140 -129
-11 -21 -10 -22 15 -16 37 9 143 41 222 68 64 22 65 23 103 94 21 40 37 72 35
72 -2 -1 -39 -15 -83 -33z"/>
<path d="M10712 2123 c23 -43 46 -88 52 -101 6 -12 31 -32 56 -43 43 -19 45
-22 45 -63 0 -57 64 -180 149 -285 75 -94 303 -299 354 -318 38 -15 -16 -63
-72 -63 -37 0 -82 16 -104 37 -7 7 -17 13 -21 13 -9 0 -122 109 -159 154 -30
36 -169 222 -179 240 -7 12 -15 12 -46 3 -20 -7 -37 -15 -37 -20 0 -8 98 -158
110 -167 3 -3 17 -21 30 -40 13 -19 27 -37 30 -40 3 -3 17 -21 30 -40 14 -19
33 -44 43 -55 10 -11 32 -48 49 -83 26 -53 29 -66 20 -87 -7 -15 -20 -25 -33
-25 -20 0 -89 28 -99 40 -3 3 -16 14 -29 23 -48 32 -113 101 -153 161 -23 34
-44 63 -48 66 -3 3 -17 21 -30 40 -13 19 -27 37 -30 40 -3 3 -17 21 -30 40
-13 19 -27 37 -30 40 -3 3 -17 21 -30 40 -13 19 -27 37 -30 40 -3 3 -28 37
-55 75 -28 39 -58 79 -67 89 -10 11 -28 35 -41 53 -24 35 -34 38 -85 20 -32
-12 -32 -13 -15 -32 10 -11 54 -67 98 -124 44 -57 85 -108 90 -115 6 -6 30
-42 55 -80 24 -38 49 -74 55 -80 6 -6 31 -40 55 -76 25 -36 47 -67 50 -70 5
-5 18 -27 44 -75 6 -11 13 -22 16 -25 3 -3 11 -18 19 -35 7 -16 18 -39 23 -49
6 -10 10 -49 10 -87 1 -88 -12 -102 -85 -97 -28 2 -60 8 -69 12 -24 11 -23 -5
2 -34 11 -13 20 -27 20 -31 0 -4 6 -14 13 -21 7 -7 32 -43 57 -80 25 -37 55
-71 68 -77 13 -6 53 -11 90 -11 71 0 104 17 130 67 23 42 11 151 -22 201 -15
24 -2 20 61 -18 63 -38 146 -70 181 -70 28 0 94 29 109 49 17 22 16 51 -3 97
-12 29 -13 35 -2 27 46 -37 195 -65 236 -44 9 5 30 15 46 22 41 19 86 67 86
90 0 15 5 19 18 16 158 -44 326 -55 361 -23 12 11 21 30 21 44 0 32 -51 99
-109 143 -25 18 -48 36 -51 39 -3 3 -21 17 -40 30 -19 13 -41 30 -48 37 -7 7
-17 13 -22 13 -5 0 -15 6 -22 13 -25 23 -106 77 -116 77 -6 0 -12 4 -14 8 -2
6 -68 51 -148 102 -137 87 -329 212 -402 262 -216 149 -263 182 -268 187 -9
11 -167 111 -174 111 -3 0 14 -35 36 -77z m340 -314 c12 -6 31 -21 43 -33 12
-11 35 -32 51 -46 16 -14 54 -54 84 -90 30 -36 57 -67 60 -70 3 -3 17 -21 30
-40 13 -19 27 -37 31 -40 3 -3 14 -20 23 -38 l17 -33 -38 20 c-83 42 -217 159
-295 258 -27 35 -51 92 -44 108 7 18 11 18 38 4z m413 -222 c83 -55 152 -103
155 -106 3 -3 32 -26 65 -50 93 -69 113 -99 83 -129 -24 -24 -131 -3 -149 29
-5 10 -15 23 -21 31 -7 7 -26 31 -43 53 -16 22 -88 98 -160 169 -71 71 -119
123 -105 116 14 -7 93 -58 175 -113z"/>
<path d="M10523 2173 c-21 -8 -15 -36 25 -115 36 -74 37 -75 64 -64 l26 11
-41 88 c-41 84 -47 91 -74 80z"/>
<path d="M7180 1946 c-49 -125 -70 -183 -70 -193 0 -8 13 -13 30 -13 18 0 30
5 30 13 0 7 9 32 20 55 11 22 20 45 20 51 0 5 9 30 19 54 l19 45 -30 4 c-23 4
-32 0 -38 -16z"/>
<path d="M9567 1923 c-4 -7 -1 -31 18 -170 8 -53 15 -60 49 -47 18 7 20 40 6
93 -5 20 -12 57 -15 84 -5 41 -9 47 -30 47 -13 0 -26 -3 -28 -7z"/>
<path d="M9820 1660 c-11 -7 -12 -14 -3 -32 16 -36 30 -70 43 -108 7 -19 16
-44 20 -55 5 -11 18 -49 30 -85 12 -36 27 -78 35 -95 7 -16 23 -57 35 -90 23
-63 34 -90 50 -127 12 -31 80 -234 92 -278 5 -19 14 -51 19 -70 43 -152 53
-304 24 -360 -24 -47 -70 -70 -138 -70 -94 0 -165 50 -231 162 -29 49 -74 156
-87 203 -59 224 -95 400 -102 505 l-2 35 -45 -4 c-25 -1 -45 -4 -46 -5 -2 -2
25 -200 36 -261 33 -190 84 -386 124 -481 33 -75 80 -169 93 -182 7 -7 13 -18
13 -23 0 -18 133 -149 179 -176 70 -42 109 -53 190 -53 95 0 136 22 182 98 34
56 34 57 33 172 0 75 -6 134 -17 170 -9 30 -19 66 -22 80 -4 14 -11 34 -15 45
-5 11 -25 68 -44 126 -37 112 -76 216 -107 286 -10 24 -19 49 -19 56 0 7 -4
17 -8 23 -5 5 -19 36 -32 69 -13 33 -27 64 -32 69 -4 6 -8 16 -8 23 0 7 -8 32
-19 56 -19 43 -111 269 -140 345 -13 34 -21 42 -41 42 -14 0 -32 -4 -40 -10z"/>
<path d="M7267 1623 c-2 -4 -12 -35 -22 -68 -23 -78 -54 -175 -65 -200 -4 -11
-20 -51 -34 -88 -32 -82 -164 -341 -177 -345 -5 -2 -9 -8 -9 -14 0 -8 -56 -94
-70 -108 -3 -3 -21 -25 -40 -50 -19 -25 -68 -79 -110 -120 -129 -130 -196
-182 -305 -240 -76 -41 -84 -43 -167 -44 -85 -1 -89 0 -115 29 -50 54 -34 119
60 245 23 30 46 60 52 66 5 7 26 31 45 55 19 24 44 52 55 63 12 12 40 46 64
76 24 30 57 71 75 90 17 19 47 55 66 80 32 41 67 84 95 114 6 6 26 31 45 56
19 25 43 54 53 65 17 18 16 20 -5 32 -37 20 -71 16 -93 -13 -10 -14 -26 -34
-34 -44 -9 -10 -32 -37 -51 -61 -19 -24 -44 -52 -55 -63 -11 -12 -41 -48 -66
-81 -26 -33 -64 -78 -85 -100 -22 -23 -86 -92 -144 -155 -58 -63 -118 -128
-135 -146 -71 -74 -123 -132 -155 -174 -19 -24 -40 -50 -46 -56 -6 -7 -17 -26
-24 -43 -7 -17 -16 -31 -20 -31 -4 0 -10 -8 -13 -17 -4 -10 -13 -36 -21 -58
-9 -22 -16 -61 -16 -87 0 -41 5 -52 34 -82 52 -51 147 -58 291 -21 83 22 285
111 305 135 3 4 28 21 55 40 28 19 52 36 55 39 3 4 23 19 45 36 39 28 234 221
285 281 14 16 36 45 50 64 13 19 27 37 30 40 14 13 70 99 70 108 0 6 6 17 13
24 17 19 33 49 93 168 88 177 123 261 160 385 39 127 44 148 47 185 2 33 0 35
-30 38 -17 2 -33 -1 -36 -5z"/>
<path d="M3470 1541 c-14 -5 -50 -14 -80 -20 -30 -7 -74 -16 -97 -21 -98 -22
-137 -30 -271 -56 -29 -6 -16 -19 50 -54 44 -23 50 -23 100 -12 61 15 97 23
228 53 154 35 203 48 213 58 10 10 -74 61 -100 60 -10 0 -29 -4 -43 -8z"/>
<path d="M3688 1444 c-5 -4 -55 -18 -173 -48 -11 -3 -60 -14 -110 -26 -49 -11
-106 -25 -126 -30 -20 -6 -46 -10 -58 -10 -29 0 -26 -14 7 -31 15 -8 29 -16
32 -19 28 -28 48 -27 201 12 85 22 192 49 239 61 47 12 86 27 87 32 1 6 -15
19 -35 30 -21 11 -38 23 -40 28 -4 8 -16 9 -24 1z"/>
<path d="M4170 1143 c-8 -2 -24 -8 -35 -13 -41 -19 -268 -90 -285 -90 -11 0
-22 -4 -25 -10 -3 -5 -17 -10 -30 -10 -43 0 -34 -15 25 -43 l58 -28 108 36
c60 20 118 40 129 45 11 5 49 19 85 31 36 12 76 27 89 34 23 12 23 12 -18 33
-40 21 -70 26 -101 15z"/>
<path d="M12373 1018 c-6 -7 -21 -42 -35 -78 -26 -65 -72 -170 -89 -202 -13
-24 -12 -25 19 -41 230 -121 205 -114 230 -64 42 88 82 178 82 185 0 19 26 62
38 62 6 0 12 11 12 24 0 19 -7 26 -30 31 -17 4 -71 27 -121 51 -49 24 -91 44
-93 44 -2 0 -8 -6 -13 -12z"/>
</g>
</svg>
